<!--<svg xmlns="http://www.w3.org/2000/svg" viewBox="0 0 1440 320">-->
<!--    <path fill="#00C853" fill-opacity="1" d="M0,32L80,32C160,32,320,32,480,37.3C640,43,800,53,960,96C1120,139,1280,213,1360,250.7L1440,288L1440,0L1360,0C1280,0,1120,0,960,0C800,0,640,0,480,0C320,0,160,0,80,0L0,0Z"></path>-->
<!--</svg>-->
<svg xmlns="http://www.w3.org/2000/svg" viewBox="0 0 1440 200">
    <path fill="#00C853" fill-opacity="1" d="M0,96L40,133.3C80,171,160,245,240,250.7C320,256,400,192,480,154.7C560,117,640,107,720,112C800,117,880,139,960,160C1040,181,1120,203,1200,197.3C1280,192,1360,160,1400,144L1440,128L1440,0L1400,0C1360,0,1280,0,1200,0C1120,0,1040,0,960,0C880,0,800,0,720,0C640,0,560,0,480,0C400,0,320,0,240,0C160,0,80,0,40,0L0,0Z"></path>
</svg>