<!--<svg xmlns="http://www.w3.org/2000/svg" viewBox="0 0 1440 200">-->
<!--    <path fill="#00C853" fill-opacity="1" d="M0,224L9.2,240C18.5,256,37,288,55,256C73.8,224,92,128,111,112C129.2,96,148,160,166,165.3C184.6,171,203,117,222,122.7C240,128,258,192,277,229.3C295.4,267,314,277,332,277.3C350.8,277,369,267,388,240C406.2,213,425,171,443,128C461.5,85,480,43,498,64C516.9,85,535,171,554,186.7C572.3,203,591,149,609,117.3C627.7,85,646,75,665,80C683.1,85,702,107,720,112C738.5,117,757,107,775,90.7C793.8,75,812,53,831,74.7C849.2,96,868,160,886,181.3C904.6,203,923,181,942,186.7C960,192,978,224,997,202.7C1015.4,181,1034,107,1052,112C1070.8,117,1089,203,1108,240C1126.2,277,1145,267,1163,245.3C1181.5,224,1200,192,1218,160C1236.9,128,1255,96,1274,112C1292.3,128,1311,192,1329,234.7C1347.7,277,1366,299,1385,272C1403.1,245,1422,171,1431,133.3L1440,96L1440,320L1430.8,320C1421.5,320,1403,320,1385,320C1366.2,320,1348,320,1329,320C1310.8,320,1292,320,1274,320C1255.4,320,1237,320,1218,320C1200,320,1182,320,1163,320C1144.6,320,1126,320,1108,320C1089.2,320,1071,320,1052,320C1033.8,320,1015,320,997,320C978.5,320,960,320,942,320C923.1,320,905,320,886,320C867.7,320,849,320,831,320C812.3,320,794,320,775,320C756.9,320,738,320,720,320C701.5,320,683,320,665,320C646.2,320,628,320,609,320C590.8,320,572,320,554,320C535.4,320,517,320,498,320C480,320,462,320,443,320C424.6,320,406,320,388,320C369.2,320,351,320,332,320C313.8,320,295,320,277,320C258.5,320,240,320,222,320C203.1,320,185,320,166,320C147.7,320,129,320,111,320C92.3,320,74,320,55,320C36.9,320,18,320,9,320L0,320Z"></path>-->
<!--</svg>-->
<!--<svg xmlns="http://www.w3.org/2000/svg" viewBox="0 0 1440 320">-->
<!--<path fill="#00C853" fill-opacity="1" d="M0,256L60,240C120,224,240,192,360,197.3C480,203,600,245,720,250.7C840,256,960,224,1080,197.3C1200,171,1320,149,1380,138.7L1440,128L1440,320L1380,320C1320,320,1200,320,1080,320C960,320,840,320,720,320C600,320,480,320,360,320C240,320,120,320,60,320L0,320Z"></path>-->
<!--</svg>-->


<svg xmlns="http://www.w3.org/2000/svg" viewBox="0 0 1440 200">
<path fill="#00C853" fill-opacity="1" d="M0,96L40,133.3C80,171,160,245,240,250.7C320,256,400,192,480,154.7C560,117,640,107,720,112C800,117,880,139,960,160C1040,181,1120,203,1200,197.3C1280,192,1360,160,1400,144L1440,128L1440,320L1400,320C1360,320,1280,320,1200,320C1120,320,1040,320,960,320C880,320,800,320,720,320C640,320,560,320,480,320C400,320,320,320,240,320C160,320,80,320,40,320L0,320Z"></path>
</svg>